<mxfile host="app.diagrams.net" modified="2023-05-24T22:07:01.040Z" agent="Mozilla/5.0 (Windows NT 10.0; Win64; x64) AppleWebKit/537.36 (KHTML, like Gecko) Chrome/112.0.0.0 YaBrowser/23.5.0.2204 Yowser/2.5 Safari/537.36" etag="gGzlkoccdY-ReVdhucjL" version="21.3.3" type="github">
  <diagram name="Страница 1" id="iI0EG7kBnKSqcHkbbkRQ">
    <mxGraphModel dx="778" dy="432" grid="1" gridSize="10" guides="1" tooltips="1" connect="1" arrows="1" fold="1" page="1" pageScale="1" pageWidth="827" pageHeight="1169" math="0" shadow="0">
      <root>
        <mxCell id="0" />
        <mxCell id="1" parent="0" />
        <mxCell id="HEl6CMRZBbWpBi7DOYfi-4" value="" style="edgeStyle=orthogonalEdgeStyle;rounded=0;orthogonalLoop=1;jettySize=auto;html=1;fontSize=13;" edge="1" parent="1" source="HEl6CMRZBbWpBi7DOYfi-1" target="HEl6CMRZBbWpBi7DOYfi-3">
          <mxGeometry relative="1" as="geometry" />
        </mxCell>
        <mxCell id="HEl6CMRZBbWpBi7DOYfi-1" value="Start" style="ellipse;whiteSpace=wrap;html=1;fontSize=13;" vertex="1" parent="1">
          <mxGeometry x="350" y="260" width="120" height="80" as="geometry" />
        </mxCell>
        <mxCell id="HEl6CMRZBbWpBi7DOYfi-2" value="Найти среднее арифметическое среди всех элементов массива" style="text;html=1;strokeColor=none;fillColor=none;align=center;verticalAlign=middle;whiteSpace=wrap;rounded=0;fontSize=13;" vertex="1" parent="1">
          <mxGeometry x="94" y="60" width="320" height="90" as="geometry" />
        </mxCell>
        <mxCell id="HEl6CMRZBbWpBi7DOYfi-6" value="" style="edgeStyle=orthogonalEdgeStyle;rounded=0;orthogonalLoop=1;jettySize=auto;html=1;fontSize=13;" edge="1" parent="1" source="HEl6CMRZBbWpBi7DOYfi-3" target="HEl6CMRZBbWpBi7DOYfi-5">
          <mxGeometry relative="1" as="geometry" />
        </mxCell>
        <mxCell id="HEl6CMRZBbWpBi7DOYfi-3" value="Array[a, b, c, d]" style="shape=parallelogram;perimeter=parallelogramPerimeter;whiteSpace=wrap;html=1;fixedSize=1;fontSize=13;" vertex="1" parent="1">
          <mxGeometry x="350" y="380" width="120" height="60" as="geometry" />
        </mxCell>
        <mxCell id="HEl6CMRZBbWpBi7DOYfi-8" value="" style="edgeStyle=orthogonalEdgeStyle;rounded=0;orthogonalLoop=1;jettySize=auto;html=1;fontSize=13;" edge="1" parent="1" source="HEl6CMRZBbWpBi7DOYfi-5" target="HEl6CMRZBbWpBi7DOYfi-7">
          <mxGeometry relative="1" as="geometry" />
        </mxCell>
        <mxCell id="HEl6CMRZBbWpBi7DOYfi-5" value="i = 0&lt;br style=&quot;font-size: 13px;&quot;&gt;sum = 0" style="whiteSpace=wrap;html=1;fontSize=13;" vertex="1" parent="1">
          <mxGeometry x="350" y="490" width="120" height="60" as="geometry" />
        </mxCell>
        <mxCell id="HEl6CMRZBbWpBi7DOYfi-10" value="" style="edgeStyle=orthogonalEdgeStyle;rounded=0;orthogonalLoop=1;jettySize=auto;html=1;fontSize=13;" edge="1" parent="1" source="HEl6CMRZBbWpBi7DOYfi-7" target="HEl6CMRZBbWpBi7DOYfi-9">
          <mxGeometry relative="1" as="geometry" />
        </mxCell>
        <mxCell id="HEl6CMRZBbWpBi7DOYfi-7" value="size = Array.Lenght" style="whiteSpace=wrap;html=1;fontSize=13;" vertex="1" parent="1">
          <mxGeometry x="350" y="600" width="120" height="60" as="geometry" />
        </mxCell>
        <mxCell id="HEl6CMRZBbWpBi7DOYfi-12" value="no" style="edgeStyle=orthogonalEdgeStyle;rounded=0;orthogonalLoop=1;jettySize=auto;html=1;fontSize=13;" edge="1" parent="1" source="HEl6CMRZBbWpBi7DOYfi-9" target="HEl6CMRZBbWpBi7DOYfi-11">
          <mxGeometry relative="1" as="geometry" />
        </mxCell>
        <mxCell id="HEl6CMRZBbWpBi7DOYfi-14" value="yes" style="edgeStyle=orthogonalEdgeStyle;rounded=0;orthogonalLoop=1;jettySize=auto;html=1;fontSize=13;" edge="1" parent="1" source="HEl6CMRZBbWpBi7DOYfi-9" target="HEl6CMRZBbWpBi7DOYfi-13">
          <mxGeometry relative="1" as="geometry" />
        </mxCell>
        <mxCell id="HEl6CMRZBbWpBi7DOYfi-9" value="i &amp;lt; size?" style="rhombus;whiteSpace=wrap;html=1;fontSize=13;" vertex="1" parent="1">
          <mxGeometry x="360" y="700" width="100" height="80" as="geometry" />
        </mxCell>
        <mxCell id="HEl6CMRZBbWpBi7DOYfi-22" value="" style="edgeStyle=orthogonalEdgeStyle;rounded=0;orthogonalLoop=1;jettySize=auto;html=1;fontSize=13;" edge="1" parent="1" source="HEl6CMRZBbWpBi7DOYfi-11" target="HEl6CMRZBbWpBi7DOYfi-20">
          <mxGeometry relative="1" as="geometry">
            <Array as="points">
              <mxPoint x="640" y="740" />
              <mxPoint x="640" y="740" />
            </Array>
          </mxGeometry>
        </mxCell>
        <mxCell id="HEl6CMRZBbWpBi7DOYfi-11" value="sum/size" style="shape=document;whiteSpace=wrap;html=1;boundedLbl=1;fontSize=13;" vertex="1" parent="1">
          <mxGeometry x="500" y="705" width="100" height="70" as="geometry" />
        </mxCell>
        <mxCell id="HEl6CMRZBbWpBi7DOYfi-16" value="" style="edgeStyle=orthogonalEdgeStyle;rounded=0;orthogonalLoop=1;jettySize=auto;html=1;fontSize=13;" edge="1" parent="1" source="HEl6CMRZBbWpBi7DOYfi-13" target="HEl6CMRZBbWpBi7DOYfi-15">
          <mxGeometry relative="1" as="geometry" />
        </mxCell>
        <mxCell id="HEl6CMRZBbWpBi7DOYfi-19" value="" style="edgeStyle=orthogonalEdgeStyle;rounded=0;orthogonalLoop=1;jettySize=auto;html=1;fontSize=13;" edge="1" parent="1" source="HEl6CMRZBbWpBi7DOYfi-13" target="HEl6CMRZBbWpBi7DOYfi-15">
          <mxGeometry relative="1" as="geometry" />
        </mxCell>
        <mxCell id="HEl6CMRZBbWpBi7DOYfi-13" value="sum = Array[ i ] + sum" style="whiteSpace=wrap;html=1;fontSize=13;" vertex="1" parent="1">
          <mxGeometry x="350" y="820" width="120" height="60" as="geometry" />
        </mxCell>
        <mxCell id="HEl6CMRZBbWpBi7DOYfi-17" style="edgeStyle=orthogonalEdgeStyle;rounded=0;orthogonalLoop=1;jettySize=auto;html=1;entryX=0;entryY=0.5;entryDx=0;entryDy=0;fontSize=13;" edge="1" parent="1" source="HEl6CMRZBbWpBi7DOYfi-15" target="HEl6CMRZBbWpBi7DOYfi-9">
          <mxGeometry relative="1" as="geometry">
            <Array as="points">
              <mxPoint x="280" y="950" />
              <mxPoint x="280" y="740" />
            </Array>
          </mxGeometry>
        </mxCell>
        <mxCell id="HEl6CMRZBbWpBi7DOYfi-15" value="i++" style="whiteSpace=wrap;html=1;fontSize=13;" vertex="1" parent="1">
          <mxGeometry x="350" y="920" width="120" height="60" as="geometry" />
        </mxCell>
        <mxCell id="HEl6CMRZBbWpBi7DOYfi-20" value="end" style="ellipse;whiteSpace=wrap;html=1;fontSize=13;" vertex="1" parent="1">
          <mxGeometry x="650" y="705" width="90" height="60" as="geometry" />
        </mxCell>
      </root>
    </mxGraphModel>
  </diagram>
</mxfile>
